<?xml version="1.0" encoding="utf-8"?>
<!-- Generator: Adobe Illustrator 16.0.0, SVG Export Plug-In . SVG Version: 6.00 Build 0)  -->
<!DOCTYPE svg PUBLIC "-//W3C//DTD SVG 1.1//EN" "http://www.w3.org/Graphics/SVG/1.1/DTD/svg11.dtd">
<svg version="1.1" id="Layer_1" xmlns="http://www.w3.org/2000/svg" xmlns:xlink="http://www.w3.org/1999/xlink" x="0px" y="0px"
	 width="612px" height="792px" viewBox="0 0 612 792" enable-background="new 0 0 612 792" xml:space="preserve">
<path fill-rule="evenodd" clip-rule="evenodd" fill="none" stroke="#000000" stroke-width="3" stroke-miterlimit="10" d="
	M294.121,410.495c-3.166,6.277-6.218,12.162-9.035,18.155c-0.317,0.674,0.406,2.447,1.14,2.88c2.14,1.259,4.529,2.097,7.209,3.27
	c0.705-1.273,1.407-2.405,1.979-3.599c1.896-3.964,3.701-7.972,5.623-11.923c2.609-5.363,7.529-6.183,11.944-2.137
	c20.135,18.445,40.292,36.866,60.449,55.288c0.927,0.847,2.048,1.508,2.874,2.436c1.804,2.027,3.225,1.568,5.008-0.156
	c2.101-2.029,0.761-3.21-0.633-4.623c-17.141-17.377-34.276-34.76-51.39-52.164c-2.964-3.014-5.818-6.134-8.432-9.969
	c2.852,0.929,5.724,1.803,8.551,2.801c3.369,1.188,4.445,0.824,5.245-2.32c-5.485-1.679-10.991-3.364-15.903-4.867
	c-1.486-3.799-3.059-7.28-4.149-10.905c-0.358-1.192,0.292-2.867,0.885-4.134c16.622-35.488,33.296-70.952,49.96-106.42
	c0.589-1.251,1.438-2.46,1.656-3.772c0.132-0.789-0.514-2.161-1.198-2.506c-0.718-0.362-2.365-0.154-2.792,0.412
	c-1.274,1.688-2.2,3.649-3.171,5.551c-17.431,34.122-34.848,68.251-52.266,102.38c-2.611,5.115-5.992,5.594-10.097,1.552
	c-4.736-4.664-9.57-9.231-14.754-14.218c-2.616,2.595-5.479,5.193-7.966,8.111c-0.468,0.549,0.173,2.762,0.965,3.53
	c4.417,4.291,9.079,8.331,13.551,12.568c0.782,0.741,1.682,2.169,1.467,3.01C289.67,403.31,290.835,407.134,294.121,410.495z
	 M292.51,401.994c-0.071-7.213,4.82-12.442,11.686-12.492c6.77-0.05,12.236,5.428,12.194,12.221
	c-0.039,6.473-5.344,11.87-11.714,11.919C297.737,413.695,292.577,408.755,292.51,401.994z"/>
<path fill-rule="evenodd" clip-rule="evenodd" fill="none" stroke="#000000" stroke-width="3" stroke-miterlimit="10" d="
	M306.496,548.652c0-2.761,0.109-5.528-0.072-8.276c-0.05-0.741-0.984-1.424-1.513-2.133c-0.625,0.734-1.772,1.455-1.792,2.204
	c-0.147,5.643-0.128,11.292,0.011,16.935c0.016,0.643,1.088,1.259,1.67,1.888c0.556-0.653,1.548-1.28,1.591-1.965
	c0.18-2.875,0.075-5.767,0.075-8.652C306.476,548.652,306.486,548.652,306.496,548.652z"/>
<path fill-rule="evenodd" clip-rule="evenodd" fill="none" stroke="#000000" stroke-width="3" stroke-miterlimit="10" d="
	M157.037,403.323c2.759,0,5.527,0.132,8.27-0.083c0.792-0.063,1.507-1.118,2.256-1.718c-0.785-0.549-1.558-1.552-2.357-1.572
	c-5.514-0.143-11.035-0.147-16.549-0.003c-0.755,0.02-1.481,1.109-2.222,1.704c0.775,0.563,1.519,1.551,2.332,1.611
	c2.743,0.203,5.512,0.077,8.271,0.077C157.037,403.334,157.037,403.329,157.037,403.323z"/>
<path fill-rule="evenodd" clip-rule="evenodd" fill="none" stroke="#000000" stroke-width="3" stroke-miterlimit="10" d="
	M452.44,399.87c-2.63-0.004-5.275-0.158-7.884,0.079c-0.918,0.084-1.748,1.128-2.618,1.733c0.804,0.553,1.596,1.563,2.412,1.583
	c5.509,0.14,11.024,0.137,16.532-0.016c0.745-0.021,1.459-1.132,2.188-1.738c-0.787-0.546-1.544-1.502-2.367-1.562
	C457.962,399.751,455.197,399.875,452.44,399.87z"/>
<path fill-rule="evenodd" clip-rule="evenodd" fill="none" stroke="#000000" stroke-width="3" stroke-miterlimit="10" d="
	M306.503,254.36c0-2.747,0.128-5.503-0.081-8.233c-0.061-0.78-1.099-1.486-1.688-2.227c-0.563,0.641-1.599,1.271-1.613,1.925
	c-0.129,5.739-0.13,11.483,0.002,17.223c0.015,0.642,1.086,1.26,1.668,1.889c0.561-0.655,1.563-1.281,1.606-1.969
	c0.183-2.859,0.077-5.737,0.077-8.607C306.483,254.36,306.493,254.36,306.503,254.36z"/>
<path fill-rule="evenodd" clip-rule="evenodd" fill="none" stroke="#000000" stroke-width="3" stroke-miterlimit="10" d="
	M183.701,471.793c-1.102-0.229-2.457-0.979-3.262-0.593c-3.154,1.515-6.181,3.316-9.141,5.19c-0.582,0.367-0.655,1.53-0.963,2.326
	c0.92,0.195,2.078,0.844,2.721,0.51c3.542-1.838,6.959-3.915,10.419-5.909C183.551,472.81,183.626,472.301,183.701,471.793z"/>
<path fill-rule="evenodd" clip-rule="evenodd" fill="none" stroke="#000000" stroke-width="3" stroke-miterlimit="10" d="
	M382.136,536.286c0.32-1.362,1.038-2.575,0.693-3.253c-1.69-3.327-3.607-6.546-5.598-9.709c-0.293-0.465-1.583-0.771-2.086-0.515
	c-0.52,0.265-1.095,1.543-0.868,1.965c1.88,3.511,3.924,6.937,5.972,10.354C380.461,535.481,381.026,535.624,382.136,536.286z"/>
<path fill-rule="evenodd" clip-rule="evenodd" fill="none" stroke="#000000" stroke-width="3" stroke-miterlimit="10" d="
	M235.766,279.139c-2.063-3.565-3.924-6.968-6.01-10.229c-0.419-0.653-1.691-0.766-2.571-1.127c-0.137,0.928-0.688,2.065-0.339,2.748
	c1.534,3.001,3.271,5.905,5.047,8.775C233.043,281.164,233.13,281.11,235.766,279.139z"/>
<path fill-rule="evenodd" clip-rule="evenodd" fill="none" stroke="#000000" stroke-width="3" stroke-miterlimit="10" d="
	M227.45,536.524c1.229-1.099,1.893-1.472,2.235-2.037c1.81-2.987,3.633-5.976,5.216-9.082c0.332-0.649-0.325-1.799-0.525-2.718
	c-0.794,0.31-1.952,0.389-2.321,0.968c-1.945,3.047-3.795,6.169-5.421,9.393C226.296,533.717,227.042,534.928,227.45,536.524z"/>
<path fill-rule="evenodd" clip-rule="evenodd" fill="none" stroke="#000000" stroke-width="3" stroke-miterlimit="10" d="
	M426.002,473.333c3.455,1.984,6.866,4.053,10.404,5.878c0.65,0.336,1.813-0.31,2.738-0.502c-0.321-0.796-0.413-1.949-1.004-2.325
	c-2.948-1.878-5.962-3.687-9.106-5.204c-0.798-0.385-2.157,0.388-3.258,0.628C425.852,472.316,425.927,472.824,426.002,473.333z"/>
<path fill-rule="evenodd" clip-rule="evenodd" fill="none" stroke="#000000" stroke-width="3" stroke-miterlimit="10" d="
	M183.656,329.955c-3.558-2.053-7.057-4.223-10.723-6.061c-0.741-0.371-2.118,0.516-3.202,0.823c0.04,0.433,0.079,0.865,0.119,1.298
	c3.559,2.047,7.06,4.208,10.725,6.044c0.731,0.367,2.09-0.508,3.159-0.81C183.708,330.818,183.683,330.387,183.656,329.955z"/>
<path fill-rule="evenodd" clip-rule="evenodd" fill="none" stroke="#000000" stroke-width="3" stroke-miterlimit="10" d="
	M425.711,331.122c1.058,0.351,2.419,1.303,3.121,0.951c3.668-1.837,7.168-4.004,10.727-6.057c0.06-0.407,0.12-0.814,0.18-1.222
	c-1.055-0.338-2.406-1.267-3.113-0.914c-3.671,1.831-7.177,3.988-10.739,6.031C425.827,330.315,425.77,330.719,425.711,331.122z"/>
<path fill-rule="evenodd" clip-rule="evenodd" fill="none" stroke="#000000" stroke-width="3" stroke-miterlimit="10" d="
	M375.224,281.645c1.245-1.157,1.886-1.541,2.228-2.105c1.809-2.993,3.635-5.985,5.227-9.094c0.335-0.653-0.289-1.795-0.471-2.712
	c-0.806,0.294-1.99,0.348-2.354,0.92c-1.939,3.057-3.775,6.19-5.396,9.423C374.117,278.758,374.829,279.964,375.224,281.645z"/>
<path fill-rule="evenodd" clip-rule="evenodd" fill="none" stroke="#000000" stroke-width="3" stroke-miterlimit="10" d="
	M452.242,448.535c-2.529-0.853-5.059-1.706-7.587-2.56c-0.176,0.492-0.352,0.984-0.527,1.477c2.54,0.875,5.08,1.751,7.621,2.627
	C451.913,449.564,452.077,449.05,452.242,448.535z"/>
<path fill-rule="evenodd" clip-rule="evenodd" fill="none" stroke="#000000" stroke-width="3" stroke-miterlimit="10" d="
	M350.95,262.739c0.828-2.543,1.656-5.085,2.484-7.628c-0.518-0.174-1.034-0.347-1.552-0.521c-0.869,2.543-1.737,5.086-2.606,7.629
	C349.834,262.393,350.393,262.565,350.95,262.739z"/>
<path fill-rule="evenodd" clip-rule="evenodd" fill="none" stroke="#000000" stroke-width="3" stroke-miterlimit="10" d="
	M157.678,449.957c2.565-0.8,5.131-1.6,7.696-2.398c-0.163-0.521-0.325-1.041-0.487-1.562c-2.553,0.844-5.105,1.688-7.657,2.531
	C157.379,449.005,157.528,449.48,157.678,449.957z"/>
<path fill-rule="evenodd" clip-rule="evenodd" fill="none" stroke="#000000" stroke-width="3" stroke-miterlimit="10" d="
	M353.328,548.03c-0.771-2.523-1.543-5.047-2.314-7.57c-0.514,0.157-1.027,0.315-1.542,0.473c0.8,2.514,1.599,5.026,2.398,7.539
	C352.355,548.324,352.843,548.178,353.328,548.03z"/>
<path fill-rule="evenodd" clip-rule="evenodd" fill="none" stroke="#000000" stroke-width="3" stroke-miterlimit="10" d="
	M448.436,432.915c2.552,0.486,5.104,0.973,7.655,1.459c0.089-0.487,0.177-0.976,0.266-1.464c-2.63-0.501-5.261-1.003-7.891-1.505
	C448.456,431.908,448.445,432.412,448.436,432.915z"/>
<path fill-rule="evenodd" clip-rule="evenodd" fill="none" stroke="#000000" stroke-width="3" stroke-miterlimit="10" d="
	M195.001,498.873c-1.958,1.76-3.916,3.519-5.875,5.278c0.354,0.379,0.707,0.758,1.062,1.137c1.938-1.779,3.878-3.559,5.817-5.338
	C195.67,499.591,195.336,499.232,195.001,498.873z"/>
<path fill-rule="evenodd" clip-rule="evenodd" fill="none" stroke="#000000" stroke-width="3" stroke-miterlimit="10" d="
	M256.02,255.117c0.859,2.534,1.719,5.069,2.579,7.604c0.47-0.133,0.94-0.267,1.41-0.4c-0.771-2.545-1.541-5.09-2.312-7.636
	C257.138,254.829,256.578,254.974,256.02,255.117z"/>
<path fill-rule="evenodd" clip-rule="evenodd" fill="none" stroke="#000000" stroke-width="3" stroke-miterlimit="10" d="
	M337.742,552.25c-0.536-2.581-1.073-5.161-1.609-7.741c-0.521,0.092-1.044,0.182-1.565,0.272c0.495,2.593,0.989,5.185,1.483,7.777
	C336.615,552.455,337.179,552.353,337.742,552.25z"/>
<path fill-rule="evenodd" clip-rule="evenodd" fill="none" stroke="#000000" stroke-width="3" stroke-miterlimit="10" d="
	M153.378,434.337c2.597-0.487,5.192-0.974,7.788-1.461c-0.084-0.471-0.169-0.941-0.254-1.412c-2.599,0.467-5.197,0.933-7.795,1.398
	C153.204,433.354,153.291,433.846,153.378,434.337z"/>
<path fill-rule="evenodd" clip-rule="evenodd" fill="none" stroke="#000000" stroke-width="3" stroke-miterlimit="10" d="
	M423.113,488.2c2.093,1.556,4.186,3.112,6.278,4.668c0.293-0.378,0.586-0.756,0.879-1.134c-2.078-1.609-4.156-3.22-6.234-4.829
	C423.729,487.337,423.421,487.769,423.113,488.2z"/>
<path fill-rule="evenodd" clip-rule="evenodd" fill="none" stroke="#000000" stroke-width="3" stroke-miterlimit="10" d="
	M420.368,504.21c-1.97-1.781-3.94-3.563-5.91-5.346c-0.372,0.384-0.745,0.768-1.118,1.151c1.963,1.792,3.927,3.585,5.891,5.378
	C419.609,504.999,419.988,504.604,420.368,504.21z"/>
<path fill-rule="evenodd" clip-rule="evenodd" fill="none" stroke="#000000" stroke-width="3" stroke-miterlimit="10" d="
	M456.065,368.729c-2.617,0.525-5.234,1.052-7.852,1.577c0.094,0.52,0.187,1.039,0.28,1.559c2.625-0.496,5.249-0.993,7.874-1.489
	C456.268,369.827,456.166,369.278,456.065,368.729z"/>
<path fill-rule="evenodd" clip-rule="evenodd" fill="none" stroke="#000000" stroke-width="3" stroke-miterlimit="10" d="
	M186.407,314.917c-2.141-1.548-4.282-3.096-6.423-4.645c-0.317,0.417-0.634,0.833-0.951,1.25c2.125,1.578,4.25,3.156,6.375,4.735
	C185.741,315.811,186.074,315.364,186.407,314.917z"/>
<path fill-rule="evenodd" clip-rule="evenodd" fill="none" stroke="#000000" stroke-width="3" stroke-miterlimit="10" d="
	M424.025,316.282c2.15-1.563,4.299-3.127,6.449-4.69c-0.317-0.45-0.636-0.9-0.952-1.352c-2.151,1.566-4.302,3.133-6.452,4.699
	C423.389,315.387,423.707,315.834,424.025,316.282z"/>
<path fill-rule="evenodd" clip-rule="evenodd" fill="none" stroke="#000000" stroke-width="3" stroke-miterlimit="10" d="
	M403.588,293.418c1.792-1.964,3.584-3.928,5.376-5.891c-0.403-0.365-0.806-0.73-1.21-1.096c-1.782,1.957-3.564,3.914-5.348,5.872
	C402.8,292.675,403.193,293.047,403.588,293.418z"/>
<path fill-rule="evenodd" clip-rule="evenodd" fill="none" stroke="#000000" stroke-width="3" stroke-miterlimit="10" d="
	M219.077,282.731c-1.575-2.137-3.148-4.273-4.723-6.41c-0.439,0.323-0.878,0.647-1.317,0.971c1.578,2.15,3.156,4.3,4.734,6.45
	C218.207,283.405,218.642,283.068,219.077,282.731z"/>
<path fill-rule="evenodd" clip-rule="evenodd" fill="none" stroke="#000000" stroke-width="3" stroke-miterlimit="10" d="
	M395.123,276.31c-1.571,2.146-3.142,4.291-4.713,6.437c0.397,0.314,0.797,0.629,1.195,0.943c1.601-2.11,3.201-4.222,4.802-6.332
	C395.979,277.008,395.551,276.659,395.123,276.31z"/>
<path fill-rule="evenodd" clip-rule="evenodd" fill="none" stroke="#000000" stroke-width="3" stroke-miterlimit="10" d="
	M336.227,258.452c0.467-2.549,0.935-5.098,1.401-7.646c-0.494-0.087-0.988-0.173-1.483-0.26c-0.486,2.634-0.973,5.268-1.459,7.901
	C335.199,258.449,335.713,258.451,336.227,258.452z"/>
<path fill-rule="evenodd" clip-rule="evenodd" fill="none" stroke="#000000" stroke-width="3" stroke-miterlimit="10" d="
	M445.692,338.119c-2.399,1.08-4.799,2.159-7.198,3.239c0.236,0.5,0.473,1,0.709,1.5c2.441-1.101,4.882-2.202,7.323-3.304
	C446.248,339.076,445.971,338.598,445.692,338.119z"/>
<path fill-rule="evenodd" clip-rule="evenodd" fill="none" stroke="#000000" stroke-width="3" stroke-miterlimit="10" d="
	M217.756,519.462c-1.561,2.108-3.121,4.217-4.682,6.326c0.403,0.306,0.807,0.611,1.21,0.918c1.587-2.087,3.174-4.173,4.762-6.26
	C218.616,520.118,218.187,519.79,217.756,519.462z"/>
<path fill-rule="evenodd" clip-rule="evenodd" fill="none" stroke="#000000" stroke-width="3" stroke-miterlimit="10" d="
	M396.398,525.808c-1.556-2.115-3.112-4.229-4.668-6.345c-0.426,0.317-0.852,0.635-1.277,0.953c1.556,2.138,3.11,4.276,4.666,6.414
	C395.545,526.489,395.973,526.148,396.398,525.808z"/>
<path fill-rule="evenodd" clip-rule="evenodd" fill="none" stroke="#000000" stroke-width="3" stroke-miterlimit="10" d="
	M408.965,515.6c-1.802-1.953-3.604-3.905-5.405-5.857c-0.387,0.349-0.772,0.697-1.159,1.047c1.781,1.989,3.563,3.978,5.345,5.967
	C408.151,516.37,408.559,515.984,408.965,515.6z"/>
<path fill-rule="evenodd" clip-rule="evenodd" fill="none" stroke="#000000" stroke-width="3" stroke-miterlimit="10" d="
	M185.465,486.918c-2.149,1.547-4.3,3.095-6.45,4.643c0.313,0.452,0.624,0.903,0.937,1.355c2.149-1.545,4.299-3.09,6.448-4.635
	C186.088,487.827,185.777,487.373,185.465,486.918z"/>
<path fill-rule="evenodd" clip-rule="evenodd" fill="none" stroke="#000000" stroke-width="3" stroke-miterlimit="10" d="
	M242.514,542.741c1.083-2.386,2.165-4.771,3.248-7.157c-0.441-0.223-0.884-0.445-1.324-0.669c-1.145,2.354-2.289,4.708-3.434,7.063
	C241.507,542.232,242.011,542.486,242.514,542.741z"/>
<path fill-rule="evenodd" clip-rule="evenodd" fill="none" stroke="#000000" stroke-width="3" stroke-miterlimit="10" d="
	M273.38,552.6c0.522-2.586,1.045-5.172,1.567-7.758c-0.487-0.106-0.975-0.213-1.463-0.319c-0.556,2.578-1.111,5.155-1.668,7.733
	C272.338,552.37,272.858,552.484,273.38,552.6z"/>
<path fill-rule="evenodd" clip-rule="evenodd" fill="none" stroke="#000000" stroke-width="3" stroke-miterlimit="10" d="
	M257.653,548.437c0.826-2.494,1.652-4.988,2.478-7.482c-0.501-0.158-1.002-0.316-1.503-0.475c-0.865,2.506-1.731,5.012-2.598,7.519
	C256.571,548.145,257.112,548.29,257.653,548.437z"/>
<path fill-rule="evenodd" clip-rule="evenodd" fill="none" stroke="#000000" stroke-width="3" stroke-miterlimit="10" d="
	M158.711,385.451c-2.589-0.269-5.179-0.537-7.768-0.807c-0.069,0.514-0.139,1.027-0.208,1.541c2.576,0.303,5.153,0.605,7.73,0.908
	C158.547,386.546,158.629,385.999,158.711,385.451z"/>
<path fill-rule="evenodd" clip-rule="evenodd" fill="none" stroke="#000000" stroke-width="3" stroke-miterlimit="10" d="
	M458.67,384.7c-2.648,0.253-5.296,0.506-7.944,0.759c0.055,0.533,0.107,1.067,0.161,1.601c2.629-0.276,5.258-0.554,7.887-0.83
	C458.739,385.72,458.705,385.21,458.67,384.7z"/>
<path fill-rule="evenodd" clip-rule="evenodd" fill="none" stroke="#000000" stroke-width="3" stroke-miterlimit="10" d="
	M240.931,261.062c1.124,2.41,2.247,4.822,3.37,7.233c0.495-0.228,0.989-0.455,1.483-0.683c-1.104-2.42-2.209-4.841-3.313-7.26
	C241.958,260.589,241.444,260.825,240.931,261.062z"/>
<path fill-rule="evenodd" clip-rule="evenodd" fill="none" stroke="#000000" stroke-width="3" stroke-miterlimit="10" d="
	M367.027,260.375c-1.087,2.341-2.174,4.683-3.26,7.024c0.405,0.208,0.812,0.417,1.217,0.625c1.196-2.286,2.393-4.571,3.589-6.857
	C368.058,260.903,367.543,260.639,367.027,260.375z"/>
<path fill-rule="evenodd" clip-rule="evenodd" fill="none" stroke="#000000" stroke-width="3" stroke-miterlimit="10" d="
	M368.459,541.955c-1.084-2.387-2.168-4.774-3.252-7.161c-0.51,0.244-1.021,0.488-1.531,0.732c1.117,2.423,2.234,4.846,3.352,7.269
	C367.504,542.516,367.981,542.235,368.459,541.955z"/>
<path fill-rule="evenodd" clip-rule="evenodd" fill="none" stroke="#000000" stroke-width="3" stroke-miterlimit="10" d="
	M157.228,354.632c2.556,0.811,5.11,1.622,7.666,2.433c0.146-0.473,0.293-0.945,0.439-1.418c-2.552-0.824-5.104-1.648-7.654-2.473
	C157.528,353.659,157.378,354.146,157.228,354.632z"/>
<path fill-rule="evenodd" clip-rule="evenodd" fill="none" stroke="#000000" stroke-width="3" stroke-miterlimit="10" d="
	M444.614,357.173c2.541-0.847,5.081-1.694,7.622-2.541c-0.13-0.455-0.26-0.91-0.389-1.365c-2.556,0.757-5.111,1.513-7.665,2.27
	C444.326,356.082,444.471,356.628,444.614,357.173z"/>
<path fill-rule="evenodd" clip-rule="evenodd" fill="none" stroke="#000000" stroke-width="3" stroke-miterlimit="10" d="
	M274.954,258.318c-0.533-2.563-1.067-5.126-1.601-7.688c-0.525,0.099-1.051,0.196-1.576,0.294c0.538,2.576,1.076,5.152,1.614,7.729
	C273.912,258.541,274.434,258.429,274.954,258.318z"/>
<path fill-rule="evenodd" clip-rule="evenodd" fill="none" stroke="#000000" stroke-width="3" stroke-miterlimit="10" d="
	M170.893,341.329c-2.405-1.084-4.812-2.168-7.217-3.251c-0.234,0.479-0.468,0.957-0.701,1.436c2.399,1.107,4.8,2.215,7.199,3.323
	C170.413,342.334,170.653,341.831,170.893,341.329z"/>
<path fill-rule="evenodd" clip-rule="evenodd" fill="none" stroke="#000000" stroke-width="3" stroke-miterlimit="10" d="
	M320.878,256.188c0.267-2.603,0.533-5.206,0.8-7.809c-0.51-0.063-1.02-0.125-1.529-0.188c-0.282,2.602-0.563,5.204-0.846,7.806
	C319.828,256.062,320.354,256.125,320.878,256.188z"/>
<path fill-rule="evenodd" clip-rule="evenodd" fill="none" stroke="#000000" stroke-width="3" stroke-miterlimit="10" d="
	M316.39,401.723c0.042-6.793-5.425-12.271-12.194-12.221c-6.865,0.05-11.757,5.279-11.686,12.492"/>
<path fill-rule="evenodd" clip-rule="evenodd" fill="none" stroke="#000000" stroke-width="4" stroke-miterlimit="10" d="
	M198.481,516.002c1.587-2.087,3.174-4.173,4.762-6.26c-0.43-0.328-0.859-0.656-1.29-0.984"/>
<path fill-rule="evenodd" clip-rule="evenodd" fill="none" stroke="#000000" stroke-width="4" stroke-miterlimit="10" d="
	M171.589,462.497c-0.13-0.455-0.26-0.91-0.389-1.365c-2.556,0.757-5.111,1.513-7.665,2.27"/>
<path fill-rule="evenodd" clip-rule="evenodd" fill="none" stroke="#000000" stroke-width="4" stroke-miterlimit="10" d="
	M161.127,417.631c-2.599,0.467-5.197,0.933-7.795,1.398"/>
<path fill-rule="evenodd" clip-rule="evenodd" fill="none" stroke="#000000" stroke-width="4" stroke-miterlimit="10" d="
	M154.658,369.081C153.096,368.585,147.984,366.964,154.658,369.081c0.146-0.473,7.959,1.487,8.105,1.015"/>
<path fill-rule="evenodd" clip-rule="evenodd" fill="none" stroke="#000000" stroke-width="3" stroke-miterlimit="10" d="
	M202.193,286.214c-0.439,0.323-0.878,0.647-1.317,0.971c1.578,2.15,3.156,4.3,4.734,6.45"/>
<path fill-rule="evenodd" clip-rule="evenodd" fill="none" stroke="#000000" stroke-width="3" stroke-miterlimit="10" d="
	M189.378,296.933c2.125,1.578,4.25,3.156,6.375,4.735"/>
<path fill-rule="evenodd" clip-rule="evenodd" fill="none" stroke="#000000" stroke-width="4" stroke-miterlimit="10" d="
	M319.927,555.603c-0.694-3.337-1.388-6.673-2.081-10.01"/>
<path fill-rule="evenodd" clip-rule="evenodd" fill="none" stroke="#000000" stroke-width="4" stroke-miterlimit="10" d="
	M292.342,546.91c-0.518-0.124-1.036-0.249-1.554-0.374c-0.591,3.022-1.181,6.044-1.772,9.066"/>
<path fill-rule="evenodd" clip-rule="evenodd" fill="none" stroke="#000000" stroke-width="4" stroke-miterlimit="10" d="
	M291.264,258.132c-3.075-15.505-1.743-8.075-2.356-11.884"/>
<path fill-rule="evenodd" clip-rule="evenodd" fill="none" stroke="#000000" stroke-width="4" stroke-miterlimit="10" d="
	M420.029,298.849c-2.581,1.88-5.162,3.759-7.742,5.639"/>
<path fill-rule="evenodd" clip-rule="evenodd" fill="none" stroke="#000000" stroke-width="4" stroke-miterlimit="10" d="
	M459.931,416.538c-3.454,0.329-6.908,0.66-10.362,0.989"/>
<path fill-rule="evenodd" clip-rule="evenodd" fill="none" stroke="#000000" stroke-width="3" stroke-miterlimit="10" d="
	M436.16,460.152c2.093,1.556,4.186,3.112,6.278,4.668c0.293-0.378,0.586-0.756,0.879-1.134c-2.078-1.609-4.156-3.22-6.234-4.829
	C436.775,459.289,436.468,459.721,436.16,460.152z"/>
</svg>
