<?xml version="1.0" encoding="utf-8"?>
<!-- Generator: Adobe Illustrator 16.0.0, SVG Export Plug-In . SVG Version: 6.00 Build 0)  -->
<!DOCTYPE svg PUBLIC "-//W3C//DTD SVG 1.1//EN" "http://www.w3.org/Graphics/SVG/1.1/DTD/svg11.dtd">
<svg version="1.1" id="Layer_1" xmlns="http://www.w3.org/2000/svg" xmlns:xlink="http://www.w3.org/1999/xlink" x="0px" y="0px"
	 width="612px" height="792px" viewBox="0 0 612 792" enable-background="new 0 0 612 792" xml:space="preserve">
<path fill="none" stroke="#010101" stroke-width="3" stroke-miterlimit="10" d="M308.496,543.652c0-2.762,0.109-5.528-0.072-8.276
	c-0.05-0.741-0.984-1.424-1.513-2.133c-0.625,0.733-1.772,1.455-1.792,2.204c-0.147,5.643-0.128,11.292,0.011,16.935
	c0.016,0.644,1.088,1.259,1.67,1.888c0.556-0.652,1.548-1.279,1.591-1.965c0.181-2.875,0.075-5.767,0.075-8.651
	C308.476,543.652,308.486,543.652,308.496,543.652z"/>
<path fill="none" stroke="#010101" stroke-width="3" stroke-miterlimit="10" d="M159.037,398.323c2.759,0,5.527,0.132,8.27-0.083
	c0.792-0.063,1.507-1.118,2.256-1.718c-0.785-0.55-1.558-1.553-2.357-1.572c-5.514-0.144-11.035-0.147-16.549-0.003
	c-0.755,0.02-1.481,1.108-2.222,1.704c0.775,0.563,1.519,1.551,2.332,1.61c2.743,0.203,5.512,0.077,8.271,0.077
	C159.037,398.334,159.037,398.329,159.037,398.323z"/>
<path fill="none" stroke="#010101" stroke-width="3" stroke-miterlimit="10" d="M454.44,394.87
	c-2.631-0.004-5.275-0.158-7.885,0.079c-0.918,0.084-1.748,1.128-2.618,1.732c0.805,0.554,1.597,1.563,2.412,1.583
	c5.51,0.141,11.024,0.138,16.532-0.016c0.745-0.021,1.459-1.132,2.188-1.738c-0.787-0.546-1.544-1.502-2.367-1.562
	C459.962,394.751,457.197,394.875,454.44,394.87z"/>
<path fill="none" stroke="#010101" stroke-width="3" stroke-miterlimit="10" d="M308.503,249.36c0-2.747,0.128-5.503-0.081-8.233
	c-0.061-0.78-1.099-1.486-1.688-2.227c-0.563,0.641-1.599,1.271-1.613,1.925c-0.129,5.739-0.13,11.483,0.002,17.223
	c0.015,0.642,1.086,1.26,1.668,1.889c0.561-0.655,1.563-1.281,1.606-1.969c0.183-2.859,0.076-5.737,0.076-8.607
	C308.483,249.36,308.493,249.36,308.503,249.36z"/>
<path fill="none" stroke="#010101" stroke-width="3" stroke-miterlimit="10" d="M185.701,466.793
	c-1.102-0.229-2.457-0.979-3.262-0.593c-3.154,1.515-6.181,3.315-9.141,5.189c-0.582,0.367-0.655,1.53-0.963,2.326
	c0.92,0.195,2.078,0.844,2.721,0.51c3.542-1.838,6.959-3.915,10.419-5.908C185.551,467.81,185.626,467.301,185.701,466.793z"/>
<path fill="none" stroke="#010101" stroke-width="3" stroke-miterlimit="10" d="M384.136,531.286
	c0.32-1.362,1.038-2.575,0.693-3.253c-1.69-3.327-3.607-6.546-5.598-9.709c-0.294-0.465-1.583-0.771-2.087-0.516
	c-0.52,0.266-1.095,1.543-0.867,1.966c1.88,3.511,3.924,6.937,5.972,10.354C382.461,530.481,383.026,530.624,384.136,531.286z"/>
<path fill="none" stroke="#010101" stroke-width="3" stroke-miterlimit="10" d="M237.766,274.139
	c-2.063-3.565-3.924-6.968-6.01-10.229c-0.419-0.653-1.691-0.766-2.571-1.127c-0.137,0.928-0.688,2.065-0.339,2.748
	c1.534,3.001,3.271,5.905,5.047,8.775C235.043,276.164,235.13,276.11,237.766,274.139z"/>
<path fill="none" stroke="#010101" stroke-width="3" stroke-miterlimit="10" d="M229.45,531.524c1.229-1.1,1.893-1.473,2.235-2.037
	c1.81-2.987,3.633-5.977,5.216-9.082c0.332-0.649-0.325-1.799-0.525-2.718c-0.794,0.31-1.952,0.389-2.321,0.968
	c-1.945,3.047-3.795,6.169-5.421,9.393C228.296,528.717,229.042,529.928,229.45,531.524z"/>
<path fill="none" stroke="#010101" stroke-width="3" stroke-miterlimit="10" d="M428.002,468.333
	c3.455,1.984,6.866,4.053,10.404,5.878c0.649,0.336,1.813-0.31,2.737-0.502c-0.32-0.796-0.412-1.949-1.004-2.325
	c-2.947-1.878-5.962-3.687-9.105-5.204c-0.798-0.385-2.157,0.389-3.258,0.628C427.852,467.316,427.927,467.824,428.002,468.333z"/>
<path fill="none" stroke="#010101" stroke-width="3" stroke-miterlimit="10" d="M185.656,324.955
	c-3.558-2.053-7.057-4.223-10.723-6.061c-0.741-0.371-2.118,0.516-3.202,0.823c0.04,0.433,0.079,0.865,0.119,1.298
	c3.559,2.047,7.06,4.208,10.725,6.044c0.731,0.367,2.09-0.508,3.159-0.81C185.708,325.818,185.683,325.387,185.656,324.955z"/>
<path fill="none" stroke="#010101" stroke-width="3" stroke-miterlimit="10" d="M427.711,326.122
	c1.058,0.351,2.419,1.303,3.121,0.951c3.668-1.837,7.168-4.004,10.727-6.057c0.061-0.407,0.12-0.814,0.181-1.222
	c-1.056-0.338-2.406-1.267-3.113-0.914c-3.671,1.831-7.177,3.988-10.739,6.031C427.827,325.315,427.77,325.719,427.711,326.122z"/>
<path fill="none" stroke="#010101" stroke-width="3" stroke-miterlimit="10" d="M377.224,276.645
	c1.245-1.157,1.887-1.541,2.229-2.105c1.809-2.993,3.635-5.985,5.227-9.094c0.335-0.653-0.289-1.795-0.471-2.712
	c-0.806,0.294-1.99,0.348-2.354,0.92c-1.938,3.057-3.774,6.19-5.396,9.423C376.117,273.758,376.829,274.964,377.224,276.645z"/>
<path fill="none" stroke="#010101" stroke-width="3" stroke-miterlimit="10" d="M454.242,443.535
	c-2.529-0.854-5.06-1.706-7.587-2.561c-0.177,0.492-0.353,0.984-0.527,1.478c2.54,0.875,5.08,1.751,7.621,2.627
	C453.913,444.564,454.077,444.05,454.242,443.535z"/>
<path fill="none" stroke="#010101" stroke-width="3" stroke-miterlimit="10" d="M352.95,257.739
	c0.828-2.543,1.656-5.085,2.483-7.628c-0.518-0.174-1.033-0.347-1.552-0.521c-0.869,2.543-1.737,5.086-2.605,7.629
	C351.834,257.393,352.393,257.565,352.95,257.739z"/>
<path fill="none" stroke="#010101" stroke-width="3" stroke-miterlimit="10" d="M159.678,444.957c2.565-0.8,5.131-1.6,7.696-2.398
	c-0.163-0.521-0.325-1.041-0.487-1.562c-2.553,0.844-5.105,1.688-7.657,2.531C159.379,444.005,159.528,444.48,159.678,444.957z"/>
<path fill="none" stroke="#010101" stroke-width="3" stroke-miterlimit="10" d="M355.328,543.03
	c-0.771-2.523-1.543-5.047-2.314-7.57c-0.514,0.157-1.026,0.315-1.542,0.473c0.801,2.515,1.6,5.026,2.398,7.539
	C354.355,543.324,354.843,543.178,355.328,543.03z"/>
<path fill="none" stroke="#010101" stroke-width="3" stroke-miterlimit="10" d="M450.436,427.915
	c2.553,0.486,5.104,0.973,7.655,1.459c0.089-0.487,0.177-0.976,0.267-1.464c-2.631-0.501-5.262-1.003-7.892-1.505
	C450.456,426.908,450.445,427.412,450.436,427.915z"/>
<path fill="none" stroke="#010101" stroke-width="3" stroke-miterlimit="10" d="M197.001,493.873
	c-1.958,1.76-3.916,3.519-5.875,5.278c0.354,0.379,0.707,0.758,1.062,1.137c1.938-1.779,3.878-3.56,5.817-5.338
	C197.67,494.591,197.336,494.232,197.001,493.873z"/>
<path fill="none" stroke="#010101" stroke-width="3" stroke-miterlimit="10" d="M258.02,250.117
	c0.859,2.534,1.719,5.069,2.579,7.604c0.47-0.133,0.94-0.267,1.41-0.4c-0.771-2.545-1.541-5.09-2.312-7.636
	C259.138,249.829,258.578,249.974,258.02,250.117z"/>
<path fill="none" stroke="#010101" stroke-width="3" stroke-miterlimit="10" d="M339.742,547.25
	c-0.536-2.581-1.073-5.161-1.609-7.741c-0.521,0.092-1.044,0.183-1.564,0.272c0.494,2.593,0.988,5.185,1.482,7.776
	C338.615,547.455,339.179,547.354,339.742,547.25z"/>
<path fill="none" stroke="#010101" stroke-width="3" stroke-miterlimit="10" d="M155.378,429.337
	c2.597-0.487,5.192-0.974,7.788-1.461c-0.084-0.471-0.169-0.941-0.254-1.412c-2.599,0.467-5.197,0.934-7.795,1.398
	C155.204,428.354,155.291,428.846,155.378,429.337z"/>
<path fill="none" stroke="#010101" stroke-width="3" stroke-miterlimit="10" d="M425.113,483.2c2.093,1.556,4.186,3.112,6.277,4.668
	c0.293-0.378,0.586-0.756,0.879-1.134c-2.077-1.609-4.155-3.221-6.233-4.829C425.729,482.337,425.421,482.769,425.113,483.2z"/>
<path fill="none" stroke="#010101" stroke-width="3" stroke-miterlimit="10" d="M422.368,499.21c-1.97-1.781-3.94-3.563-5.91-5.346
	c-0.372,0.384-0.745,0.768-1.118,1.15c1.963,1.792,3.927,3.585,5.892,5.378C421.609,499.999,421.988,499.604,422.368,499.21z"/>
<path fill="none" stroke="#010101" stroke-width="3" stroke-miterlimit="10" d="M458.065,363.729
	c-2.617,0.525-5.234,1.052-7.853,1.577c0.094,0.52,0.188,1.039,0.28,1.559c2.625-0.496,5.249-0.993,7.874-1.489
	C458.268,364.827,458.166,364.278,458.065,363.729z"/>
<path fill="none" stroke="#010101" stroke-width="3" stroke-miterlimit="10" d="M188.407,309.917
	c-2.141-1.548-4.282-3.096-6.423-4.645c-0.317,0.417-0.634,0.833-0.951,1.25c2.125,1.578,4.25,3.156,6.375,4.735
	C187.741,310.811,188.074,310.364,188.407,309.917z"/>
<path fill="none" stroke="#010101" stroke-width="3" stroke-miterlimit="10" d="M426.025,311.282
	c2.149-1.563,4.299-3.127,6.448-4.69c-0.316-0.45-0.636-0.9-0.951-1.352c-2.151,1.566-4.303,3.133-6.452,4.699
	C425.389,310.387,425.707,310.834,426.025,311.282z"/>
<path fill="none" stroke="#010101" stroke-width="3" stroke-miterlimit="10" d="M405.588,288.418
	c1.792-1.964,3.584-3.928,5.376-5.891c-0.403-0.365-0.806-0.73-1.21-1.096c-1.782,1.957-3.563,3.914-5.348,5.872
	C404.8,287.675,405.193,288.047,405.588,288.418z"/>
<path fill="none" stroke="#010101" stroke-width="3" stroke-miterlimit="10" d="M221.077,277.731
	c-1.575-2.137-3.148-4.273-4.723-6.41c-0.439,0.323-0.878,0.647-1.317,0.971c1.578,2.15,3.156,4.3,4.734,6.45
	C220.207,278.405,220.642,278.068,221.077,277.731z"/>
<path fill="none" stroke="#010101" stroke-width="3" stroke-miterlimit="10" d="M397.123,271.31
	c-1.571,2.146-3.142,4.291-4.713,6.437c0.396,0.314,0.797,0.629,1.195,0.943c1.601-2.11,3.2-4.222,4.802-6.332
	C397.979,272.008,397.551,271.659,397.123,271.31z"/>
<path fill="none" stroke="#010101" stroke-width="3" stroke-miterlimit="10" d="M338.227,253.452
	c0.468-2.549,0.936-5.098,1.401-7.646c-0.494-0.087-0.988-0.173-1.483-0.26c-0.485,2.634-0.973,5.268-1.459,7.901
	C337.199,253.449,337.713,253.451,338.227,253.452z"/>
<path fill="none" stroke="#010101" stroke-width="3" stroke-miterlimit="10" d="M447.692,333.119c-2.399,1.08-4.8,2.159-7.198,3.239
	c0.236,0.5,0.473,1,0.709,1.5c2.44-1.101,4.882-2.202,7.323-3.304C448.248,334.076,447.971,333.598,447.692,333.119z"/>
<path fill="none" stroke="#010101" stroke-width="3" stroke-miterlimit="10" d="M219.756,514.462
	c-1.561,2.108-3.121,4.217-4.682,6.326c0.403,0.306,0.807,0.611,1.21,0.918c1.587-2.087,3.174-4.173,4.762-6.26
	C220.616,515.118,220.187,514.79,219.756,514.462z"/>
<path fill="none" stroke="#010101" stroke-width="3" stroke-miterlimit="10" d="M398.398,520.808
	c-1.557-2.114-3.112-4.229-4.668-6.345c-0.427,0.317-0.853,0.635-1.277,0.953c1.556,2.138,3.109,4.276,4.666,6.414
	C397.545,521.489,397.973,521.148,398.398,520.808z"/>
<path fill="none" stroke="#010101" stroke-width="3" stroke-miterlimit="10" d="M410.965,510.6
	c-1.802-1.953-3.604-3.904-5.405-5.856c-0.387,0.349-0.771,0.697-1.158,1.047c1.78,1.989,3.563,3.978,5.345,5.967
	C410.151,511.37,410.559,510.984,410.965,510.6z"/>
<path fill="none" stroke="#010101" stroke-width="3" stroke-miterlimit="10" d="M187.465,481.918c-2.149,1.547-4.3,3.095-6.45,4.643
	c0.313,0.452,0.624,0.903,0.937,1.355c2.149-1.545,4.299-3.09,6.448-4.635C188.088,482.827,187.777,482.373,187.465,481.918z"/>
<path fill="none" stroke="#010101" stroke-width="3" stroke-miterlimit="10" d="M244.514,537.741
	c1.083-2.386,2.165-4.771,3.248-7.157c-0.441-0.223-0.884-0.445-1.324-0.669c-1.145,2.354-2.289,4.708-3.434,7.063
	C243.507,537.232,244.011,537.486,244.514,537.741z"/>
<path fill="none" stroke="#010101" stroke-width="3" stroke-miterlimit="10" d="M275.38,547.6c0.522-2.586,1.045-5.172,1.567-7.758
	c-0.487-0.105-0.975-0.213-1.463-0.318c-0.556,2.577-1.111,5.154-1.668,7.732C274.338,547.37,274.858,547.484,275.38,547.6z"/>
<path fill="none" stroke="#010101" stroke-width="3" stroke-miterlimit="10" d="M259.653,543.438
	c0.826-2.494,1.652-4.988,2.478-7.482c-0.501-0.158-1.002-0.316-1.503-0.475c-0.865,2.506-1.731,5.012-2.598,7.519
	C258.571,543.145,259.112,543.29,259.653,543.438z"/>
<path fill="none" stroke="#010101" stroke-width="3" stroke-miterlimit="10" d="M160.711,380.451
	c-2.589-0.269-5.179-0.537-7.768-0.807c-0.069,0.514-0.139,1.027-0.208,1.541c2.576,0.303,5.153,0.605,7.73,0.908
	C160.547,381.546,160.629,380.999,160.711,380.451z"/>
<path fill="none" stroke="#010101" stroke-width="3" stroke-miterlimit="10" d="M460.67,379.7c-2.647,0.253-5.296,0.506-7.944,0.759
	c0.056,0.533,0.107,1.067,0.161,1.601c2.629-0.276,5.258-0.554,7.888-0.83C460.739,380.72,460.705,380.21,460.67,379.7z"/>
<path fill="none" stroke="#010101" stroke-width="3" stroke-miterlimit="10" d="M242.931,256.062c1.124,2.41,2.247,4.822,3.37,7.233
	c0.495-0.228,0.989-0.455,1.483-0.683c-1.104-2.42-2.209-4.841-3.313-7.26C243.958,255.589,243.444,255.825,242.931,256.062z"/>
<path fill="none" stroke="#010101" stroke-width="3" stroke-miterlimit="10" d="M369.027,255.375
	c-1.087,2.341-2.175,4.683-3.261,7.024c0.405,0.208,0.813,0.417,1.218,0.625c1.195-2.286,2.393-4.571,3.589-6.857
	C370.058,255.903,369.543,255.639,369.027,255.375z"/>
<path fill="none" stroke="#010101" stroke-width="3" stroke-miterlimit="10" d="M370.459,536.955
	c-1.084-2.387-2.168-4.774-3.252-7.161c-0.51,0.244-1.021,0.488-1.531,0.732c1.117,2.423,2.234,4.846,3.353,7.269
	C369.504,537.516,369.981,537.235,370.459,536.955z"/>
<path fill="none" stroke="#010101" stroke-width="3" stroke-miterlimit="10" d="M159.228,349.632
	c2.556,0.811,5.11,1.622,7.666,2.433c0.146-0.473,0.293-0.945,0.439-1.418c-2.552-0.824-5.104-1.648-7.654-2.473
	C159.528,348.659,159.378,349.146,159.228,349.632z"/>
<path fill="none" stroke="#010101" stroke-width="3" stroke-miterlimit="10" d="M446.614,352.173
	c2.541-0.847,5.081-1.694,7.622-2.541c-0.13-0.455-0.261-0.91-0.39-1.365c-2.556,0.757-5.11,1.513-7.665,2.27
	C446.326,351.082,446.471,351.628,446.614,352.173z"/>
<path fill="none" stroke="#010101" stroke-width="3" stroke-miterlimit="10" d="M276.954,253.318
	c-0.533-2.563-1.067-5.126-1.601-7.688c-0.525,0.099-1.051,0.196-1.576,0.294c0.538,2.576,1.076,5.152,1.614,7.729
	C275.912,253.541,276.434,253.429,276.954,253.318z"/>
<path fill="none" stroke="#010101" stroke-width="3" stroke-miterlimit="10" d="M172.893,336.329
	c-2.405-1.084-4.812-2.168-7.217-3.251c-0.234,0.479-0.468,0.957-0.701,1.436c2.399,1.107,4.8,2.215,7.199,3.323
	C172.413,337.334,172.653,336.831,172.893,336.329z"/>
<path fill="none" stroke="#010101" stroke-width="3" stroke-miterlimit="10" d="M322.878,251.188c0.267-2.603,0.533-5.206,0.8-7.809
	c-0.51-0.063-1.02-0.125-1.528-0.188c-0.282,2.602-0.563,5.204-0.847,7.806C321.828,251.062,322.354,251.125,322.878,251.188z"/>
<path fill="none" stroke="#010101" stroke-width="4" stroke-miterlimit="10" d="M200.481,511.002
	c1.587-2.087,3.174-4.173,4.762-6.26c-0.43-0.328-0.859-0.656-1.29-0.984"/>
<path fill="none" stroke="#010101" stroke-width="4" stroke-miterlimit="10" d="M173.589,457.497c-0.13-0.455-0.26-0.91-0.389-1.365
	c-2.556,0.757-5.111,1.513-7.665,2.271"/>
<path fill="none" stroke="#010101" stroke-width="4" stroke-miterlimit="10" d="M163.127,412.631
	c-2.599,0.467-5.197,0.934-7.795,1.398"/>
<path fill="none" stroke="#010101" stroke-width="4" stroke-miterlimit="10" d="M156.658,364.081
	C155.096,363.585,149.984,361.964,156.658,364.081c0.146-0.473,7.959,1.487,8.105,1.015"/>
<path fill="none" stroke="#010101" stroke-width="3" stroke-miterlimit="10" d="M204.193,281.214
	c-0.439,0.323-0.878,0.647-1.317,0.971c1.578,2.15,3.156,4.3,4.734,6.45"/>
<path fill="none" stroke="#010101" stroke-width="3" stroke-miterlimit="10" d="M191.378,291.933
	c2.125,1.578,4.25,3.156,6.375,4.735"/>
<path fill="none" stroke="#010101" stroke-width="4" stroke-miterlimit="10" d="M321.927,550.604
	c-0.693-3.338-1.388-6.674-2.081-10.011"/>
<path fill="none" stroke="#010101" stroke-width="4" stroke-miterlimit="10" d="M294.342,541.91
	c-0.518-0.124-1.036-0.249-1.554-0.374c-0.591,3.021-1.181,6.044-1.772,9.065"/>
<path fill="none" stroke="#010101" stroke-width="4" stroke-miterlimit="10" d="M293.264,253.132
	c-3.075-15.505-1.743-8.075-2.356-11.884"/>
<path fill="none" stroke="#010101" stroke-width="4" stroke-miterlimit="10" d="M422.029,293.849
	c-2.581,1.88-5.162,3.759-7.742,5.639"/>
<path fill="none" stroke="#010101" stroke-width="4" stroke-miterlimit="10" d="M461.931,411.538
	c-3.454,0.329-6.907,0.66-10.361,0.989"/>
<path fill="none" stroke="#010101" stroke-width="3" stroke-miterlimit="10" d="M438.16,455.152
	c2.093,1.556,4.186,3.111,6.277,4.668c0.294-0.378,0.587-0.756,0.88-1.135c-2.078-1.608-4.156-3.22-6.234-4.828
	C438.775,454.289,438.468,454.721,438.16,455.152z"/>
</svg>
