<?xml version="1.0" encoding="utf-8"?>
<!-- Generator: Adobe Illustrator 16.0.0, SVG Export Plug-In . SVG Version: 6.00 Build 0)  -->
<!DOCTYPE svg PUBLIC "-//W3C//DTD SVG 1.1//EN" "http://www.w3.org/Graphics/SVG/1.1/DTD/svg11.dtd">
<svg version="1.1" id="Layer_1" xmlns="http://www.w3.org/2000/svg" xmlns:xlink="http://www.w3.org/1999/xlink" x="0px" y="0px"
	 width="612px" height="792px" viewBox="0 0 612 792" enable-background="new 0 0 612 792" xml:space="preserve">
<path fill="none" stroke="#010101" stroke-width="3" stroke-miterlimit="10" d="M304.276,517.704
	c-17.141-17.377-34.275-34.76-51.39-52.164c-2.328-2.367-4.586-4.806-6.715-7.599c-0.322-0.314-0.613-0.663-0.821-1.085
	c-0.007-0.015-0.014-0.03-0.021-0.045c-0.294-0.406-0.586-0.817-0.874-1.24c0.118,0.038,0.236,0.076,0.354,0.115
	c-0.642-1.397-1.209-2.818-1.7-4.269c-0.252-0.077-0.514-0.156-0.761-0.232c-1.486-3.8-3.059-7.28-4.149-10.905
	c-0.357-1.191,0.292-2.867,0.886-4.135c16.622-35.487,33.296-70.951,49.96-106.419c0.589-1.251,1.438-2.46,1.655-3.772
	c0.133-0.789-0.514-2.161-1.197-2.506c-0.719-0.362-2.365-0.154-2.792,0.412c-1.274,1.688-2.2,3.649-3.171,5.551
	c-17.432,34.122-34.849,68.251-52.267,102.38c-2.611,5.115-5.992,5.595-10.097,1.552c-4.735-4.664-9.57-9.23-14.754-14.218
	c-2.616,2.596-5.479,5.193-7.966,8.111c-0.468,0.549,0.173,2.762,0.965,3.53c4.417,4.291,9.078,8.33,13.551,12.567
	c0.782,0.741,1.682,2.169,1.467,3.01c-1.171,4.584-0.006,8.408,3.28,11.77c-3.166,6.277-6.218,12.162-9.035,18.155
	c-0.317,0.674,0.406,2.446,1.14,2.88c2.141,1.259,4.529,2.097,7.209,3.27c0.705-1.272,1.407-2.405,1.979-3.599
	c1.896-3.964,3.701-7.973,5.623-11.923c2.608-5.363,7.529-6.184,11.944-2.138c20.135,18.445,40.292,36.866,60.448,55.288
	c0.928,0.848,2.049,1.508,2.874,2.437c1.805,2.026,3.226,1.567,5.009-0.156C307.01,520.298,305.67,519.117,304.276,517.704z
	 M228.273,461.26c-6.938,0.054-12.099-4.887-12.166-11.647c-0.071-7.213,4.82-12.442,11.687-12.492
	c6.77-0.05,12.235,5.428,12.193,12.221C239.948,455.814,234.643,461.211,228.273,461.26z"/>
</svg>
